<svg xmlns="http://www.w3.org/2000/svg" viewBox="0 0 311 123"><defs><style>.cls-1,.cls-2,.cls-3,.cls-4,.cls-5,.cls-6{fill:#fff;}.cls-1{opacity:0.5;}.cls-2{opacity:0.4;}.cls-3{opacity:0.3;}.cls-4{opacity:0.2;}.cls-5{opacity:0.1;}.cls-6{opacity:0.05;}.cls-7{fill:none;stroke:#fff;stroke-miterlimit:10;opacity:0.8;}</style></defs><title>horizontal-sectional</title><g id="Layer_2" data-name="Layer 2"><g id="horitzonal_sectional" data-name="horitzonal sectional"><g id="fill_rainbow" data-name="fill rainbow"><rect class="cls-1" x="0.5" y="0.5" width="26" height="122" rx="12" ry="12"/><rect class="cls-2" x="31.5" y="0.5" width="26" height="122" rx="12" ry="12"/><rect class="cls-3" x="63.5" y="0.5" width="26" height="122" rx="12" ry="12"/><rect class="cls-4" x="94.5" y="0.5" width="26" height="122" rx="12" ry="12"/><rect class="cls-5" x="126.5" y="0.5" width="26" height="122" rx="12" ry="12"/><rect class="cls-6" x="158.5" y="0.5" width="26" height="122" rx="12" ry="12"/><rect class="cls-6" x="189.5" y="0.5" width="26" height="122" rx="12" ry="12"/><rect class="cls-6" x="221.5" y="0.5" width="26" height="122" rx="12" ry="12"/><rect class="cls-6" x="252.5" y="0.5" width="26" height="122" rx="12" ry="12"/><rect class="cls-6" x="284.5" y="0.5" width="26" height="122" rx="12" ry="12"/></g><g id="border"><rect id="outline1" class="cls-7" x="0.5" y="0.5" width="26" height="122" rx="12" ry="12"/><rect id="outline2" class="cls-7" x="31.5" y="0.5" width="26" height="122" rx="12" ry="12"/><rect id="outline3" class="cls-7" x="63.5" y="0.5" width="26" height="122" rx="12" ry="12"/><rect id="outline4" class="cls-7" x="94.5" y="0.5" width="26" height="122" rx="12" ry="12"/><rect id="outline5" class="cls-7" x="126.5" y="0.5" width="26" height="122" rx="12" ry="12"/><rect id="outline6" class="cls-7" x="158.5" y="0.5" width="26" height="122" rx="12" ry="12"/><rect id="outline7" class="cls-7" x="189.5" y="0.5" width="26" height="122" rx="12" ry="12"/><rect id="outline8" class="cls-7" x="221.5" y="0.5" width="26" height="122" rx="12" ry="12"/><rect id="outline8-2" data-name="outline8" class="cls-7" x="252.5" y="0.5" width="26" height="122" rx="12" ry="12"/><rect id="outline10" class="cls-7" x="284.5" y="0.5" width="26" height="122" rx="12" ry="12"/></g></g></g></svg>